<?xml version="1.0" encoding="utf-8"?>
<!-- Generator: Adobe Illustrator 26.5.0, SVG Export Plug-In . SVG Version: 6.00 Build 0)  -->
<svg version="1.1" id="Calque_1" xmlns="http://www.w3.org/2000/svg" xmlns:xlink="http://www.w3.org/1999/xlink" x="0px" y="0px"
	 viewBox="0 0 48 48" style="enable-background:new 0 0 48 48;" xml:space="preserve">
<style type="text/css">
	.st0{fill:#05B0FF;}
</style>
<path class="st0" d="M13.9,34h13.8v-3H13.9V34z M13.9,25.5h20.3v-3H13.9V25.5z M13.9,17h20.3v-3H13.9V17z M9,42
	c-0.8,0-1.5-0.3-2.1-0.9C6.3,40.5,6,39.8,6,39V9c0-0.8,0.3-1.5,0.9-2.1S8.2,6,9,6h30c0.8,0,1.5,0.3,2.1,0.9C41.7,7.5,42,8.2,42,9v30
	c0,0.8-0.3,1.5-0.9,2.1C40.5,41.7,39.8,42,39,42H9z M9,39h30V9H9V39z M9,9v30V9z"/>
<image style="overflow:visible;" width="48" height="48" xlink:href="flocon-png.png"  transform="matrix(1 0 0 1 -335 -457)">
</image>
</svg>
